<svg width="394" height="108" viewBox="0 0 394 108" fill="none" xmlns="http://www.w3.org/2000/svg">
<path d="M150.814 89.6561C143.543 89.6561 137.721 88.2894 133.348 85.556C128.975 82.768 126.788 78.5314 126.788 72.8461C126.788 69.8394 127.307 67.5434 128.346 65.958C129.385 64.3727 130.915 63.5801 132.938 63.5801C134.414 63.5801 135.617 63.9627 136.546 64.728C137.475 65.4934 137.94 66.4774 137.94 67.68C137.94 68.7734 137.858 69.7301 137.694 70.5501C137.694 70.7687 137.639 71.1514 137.53 71.698C137.475 72.2447 137.448 72.8187 137.448 73.42C137.448 75.88 138.678 77.7114 141.138 78.914C143.653 80.1167 147.151 80.718 151.634 80.718C156.281 80.718 159.916 79.898 162.54 78.258C165.164 76.5634 166.476 74.2127 166.476 71.2061C166.476 69.3474 165.875 67.762 164.672 66.45C163.469 65.0834 161.966 63.9627 160.162 63.088C158.358 62.1587 155.816 61.038 152.536 59.726C148.327 58.086 144.883 56.528 142.204 55.052C139.58 53.576 137.311 51.5807 135.398 49.0661C133.539 46.4967 132.61 43.326 132.61 39.554C132.61 35.618 133.649 32.1194 135.726 29.058C137.858 25.9967 140.892 23.6187 144.828 21.924C148.819 20.2294 153.493 19.382 158.85 19.382C162.841 19.382 166.503 19.9834 169.838 21.186C173.173 22.334 175.824 24.1107 177.792 26.516C179.815 28.9214 180.826 31.8734 180.826 35.372C180.826 38.816 180.307 41.4127 179.268 43.162C178.229 44.9114 176.699 45.786 174.676 45.786C173.255 45.786 172.052 45.3487 171.068 44.474C170.139 43.5994 169.674 42.5607 169.674 41.358C169.674 40.3194 169.756 39.3627 169.92 38.488C170.084 36.848 170.166 35.8094 170.166 35.372C170.166 33.076 169.045 31.3267 166.804 30.124C164.563 28.9214 161.775 28.32 158.44 28.32C153.739 28.32 150.131 29.1947 147.616 30.944C145.156 32.6387 143.926 35.044 143.926 38.16C143.926 40.2374 144.555 42.014 145.812 43.49C147.124 44.966 148.737 46.196 150.65 47.18C152.563 48.164 155.242 49.3394 158.686 50.7061C162.841 52.4007 166.175 53.9314 168.69 55.298C171.205 56.6647 173.337 58.5234 175.086 60.8741C176.89 63.2247 177.792 66.1221 177.792 69.5661C177.792 76.0167 175.332 80.9914 170.412 84.4901C165.547 87.9341 159.014 89.6561 150.814 89.6561Z" fill="white"/>
<path d="M221.363 70.714C222.074 70.714 222.621 71.042 223.003 71.698C223.441 72.354 223.659 73.256 223.659 74.404C223.659 76.5907 223.14 78.2854 222.101 79.4881C220.079 81.9481 217.209 84.2167 213.491 86.2941C209.829 88.3714 205.893 89.41 201.683 89.41C195.943 89.41 191.488 87.8521 188.317 84.7361C185.147 81.6201 183.561 77.3561 183.561 71.944C183.561 68.172 184.354 64.6734 185.939 61.448C187.525 58.168 189.711 55.5714 192.499 53.658C195.342 51.7447 198.54 50.7881 202.093 50.7881C205.264 50.7881 207.806 51.7447 209.719 53.658C211.633 55.5167 212.589 58.0587 212.589 61.284C212.589 65.056 211.223 68.3087 208.489 71.042C205.811 73.7207 201.246 75.8527 194.795 77.438C196.162 79.9527 198.759 81.2101 202.585 81.2101C205.045 81.2101 207.833 80.3627 210.949 78.668C214.12 76.9187 216.853 74.65 219.149 71.862C219.805 71.0967 220.543 70.714 221.363 70.714ZM200.699 58.824C198.677 58.824 196.955 59.9994 195.533 62.35C194.167 64.7007 193.483 67.5434 193.483 70.878V71.042C196.709 70.2767 199.251 69.1287 201.109 67.598C202.968 66.0674 203.897 64.2907 203.897 62.268C203.897 61.2294 203.597 60.4094 202.995 59.808C202.449 59.152 201.683 58.824 200.699 58.824Z" fill="white"/>
<path d="M222.805 89.41C220.728 89.41 219.252 88.3167 218.377 86.1301C217.557 83.9434 217.147 80.4447 217.147 75.6341C217.147 68.5274 218.158 61.776 220.181 55.38C220.673 53.7947 221.466 52.6467 222.559 51.936C223.707 51.1707 225.292 50.7881 227.315 50.7881C228.408 50.7881 229.174 50.9247 229.611 51.198C230.048 51.4714 230.267 51.9907 230.267 52.756C230.267 53.6307 229.857 55.5987 229.037 58.66C228.49 60.8467 228.053 62.7601 227.725 64.4001C227.397 66.0401 227.124 68.0627 226.905 70.4681C228.709 65.7667 230.732 61.94 232.973 58.988C235.214 56.036 237.401 53.9314 239.533 52.674C241.72 51.4167 243.715 50.7881 245.519 50.7881C249.072 50.7881 250.849 52.5647 250.849 56.118C250.849 58.25 250.248 62.1041 249.045 67.68C248.006 72.4361 247.487 75.5794 247.487 77.11C247.487 79.2967 248.28 80.39 249.865 80.39C250.958 80.39 252.243 79.734 253.719 78.422C255.25 77.0554 257.272 74.8687 259.787 71.862C260.443 71.0967 261.181 70.714 262.001 70.714C262.712 70.714 263.258 71.042 263.641 71.698C264.078 72.354 264.297 73.256 264.297 74.404C264.297 76.5907 263.778 78.2854 262.739 79.4881C260.388 82.3854 257.846 84.7634 255.113 86.6221C252.434 88.4807 249.373 89.41 245.929 89.41C243.141 89.41 241.036 88.6174 239.615 87.032C238.194 85.392 237.483 83.0414 237.483 79.98C237.483 78.4494 237.866 75.716 238.631 71.78C239.342 68.336 239.697 65.958 239.697 64.646C239.697 63.7714 239.396 63.334 238.795 63.334C238.084 63.334 237.073 64.2634 235.761 66.1221C234.504 67.9261 233.192 70.3314 231.825 73.338C230.513 76.3447 229.447 79.5154 228.627 82.8501C228.026 85.4194 227.315 87.1687 226.495 88.0981C225.73 88.9727 224.5 89.41 222.805 89.41Z" fill="white"/>
<path d="M273.325 89.41C267.967 89.41 263.785 87.9067 260.779 84.9001C257.827 81.8387 256.351 77.8207 256.351 72.8461C256.351 68.418 257.225 64.5367 258.975 61.202C260.724 57.8674 262.993 55.298 265.781 53.494C268.569 51.69 271.493 50.7881 274.555 50.7881C277.561 50.7881 279.885 51.69 281.525 53.494C283.219 55.2434 284.067 57.512 284.067 60.3C284.067 62.596 283.547 64.5367 282.509 66.1221C281.525 67.7074 280.213 68.5 278.573 68.5C277.534 68.5 276.687 68.2541 276.031 67.7621C275.429 67.2701 275.129 66.5867 275.129 65.712C275.129 65.3294 275.183 64.8921 275.293 64.4001C275.402 63.9081 275.484 63.5527 275.539 63.334C275.812 62.5141 275.949 61.7487 275.949 61.0381C275.949 60.3274 275.757 59.7807 275.375 59.398C275.047 59.0154 274.555 58.824 273.899 58.824C272.641 58.824 271.466 59.398 270.373 60.546C269.279 61.6394 268.405 63.1427 267.749 65.056C267.093 66.9694 266.765 69.0741 266.765 71.3701C266.765 77.7114 269.525 80.882 275.047 80.882C277.288 80.882 279.693 80.144 282.263 78.668C284.887 77.1374 287.456 74.8687 289.971 71.862C290.627 71.0967 291.365 70.714 292.185 70.714C292.895 70.714 293.442 71.042 293.825 71.698C294.262 72.354 294.481 73.256 294.481 74.404C294.481 76.4814 293.961 78.1761 292.923 79.4881C290.353 82.6587 287.265 85.1187 283.657 86.868C280.103 88.5627 276.659 89.41 273.325 89.41Z" fill="white"/>
<path d="M298.594 45.376C296.298 45.376 294.576 44.8567 293.428 43.8181C292.28 42.7247 291.706 41.2214 291.706 39.308C291.706 37.3947 292.444 35.8094 293.92 34.552C295.451 33.24 297.337 32.584 299.578 32.584C301.601 32.584 303.241 33.076 304.498 34.06C305.755 35.044 306.384 36.438 306.384 38.242C306.384 40.4287 305.673 42.178 304.252 43.49C302.831 44.7474 300.945 45.376 298.594 45.376ZM297.938 89.41C294.385 89.41 291.788 88.1527 290.148 85.638C288.563 83.1234 287.77 79.7887 287.77 75.6341C287.77 73.1741 288.071 70.0307 288.672 66.204C289.328 62.3227 290.148 58.7147 291.132 55.38C291.624 53.6307 292.28 52.428 293.1 51.772C293.92 51.116 295.232 50.7881 297.036 50.7881C299.824 50.7881 301.218 51.7174 301.218 53.576C301.218 54.9427 300.699 58.1134 299.66 63.088C298.348 69.1014 297.692 73.174 297.692 75.306C297.692 76.946 297.911 78.2034 298.348 79.078C298.785 79.9527 299.523 80.39 300.562 80.39C301.546 80.39 302.776 79.7067 304.252 78.34C305.728 76.9734 307.696 74.814 310.156 71.862C310.812 71.0967 311.55 70.714 312.37 70.714C313.081 70.714 313.627 71.042 314.01 71.698C314.447 72.354 314.666 73.256 314.666 74.404C314.666 76.5907 314.147 78.2854 313.108 79.4881C307.696 86.1027 302.639 89.41 297.938 89.41Z" fill="white"/>
<path d="M339.11 70.714C339.82 70.714 340.367 71.042 340.75 71.698C341.187 72.354 341.406 73.256 341.406 74.404C341.406 76.5907 340.886 78.2854 339.848 79.4881C337.497 82.3854 334.928 84.7634 332.14 86.6221C329.406 88.4807 326.29 89.41 322.792 89.41C317.981 89.41 314.4 87.2234 312.05 82.8501C309.754 78.4767 308.606 72.8187 308.606 65.876C308.606 59.2067 309.453 51.608 311.148 43.08C312.897 34.552 315.439 27.2267 318.774 21.104C322.163 14.9814 326.181 11.92 330.828 11.92C333.452 11.92 335.502 13.15 336.978 15.61C338.508 18.0154 339.274 21.4867 339.274 26.024C339.274 32.5294 337.47 40.0734 333.862 48.656C330.254 57.2387 325.361 65.7394 319.184 74.158C319.566 76.3994 320.195 78.012 321.07 78.996C321.944 79.9254 323.092 80.39 324.514 80.39C326.755 80.39 328.723 79.7614 330.418 78.504C332.112 77.192 334.272 74.978 336.896 71.862C337.552 71.0967 338.29 70.714 339.11 70.714ZM329.024 20.038C327.766 20.038 326.345 22.3067 324.76 26.844C323.174 31.3814 321.78 37.012 320.578 43.736C319.375 50.46 318.719 56.9107 318.61 63.088C322.491 56.692 325.58 50.296 327.876 43.9C330.172 37.4494 331.32 31.5727 331.32 26.27C331.32 22.1154 330.554 20.038 329.024 20.038Z" fill="white"/>
<path d="M365.856 70.714C366.566 70.714 367.113 71.042 367.496 71.698C367.933 72.354 368.152 73.256 368.152 74.404C368.152 76.5907 367.632 78.2854 366.594 79.4881C364.243 82.3854 361.674 84.7634 358.886 86.6221C356.152 88.4807 353.036 89.41 349.538 89.41C344.727 89.41 341.146 87.2234 338.796 82.8501C336.5 78.4767 335.352 72.8187 335.352 65.876C335.352 59.2067 336.199 51.608 337.894 43.08C339.643 34.552 342.185 27.2267 345.52 21.104C348.909 14.9814 352.927 11.92 357.574 11.92C360.198 11.92 362.248 13.15 363.724 15.61C365.254 18.0154 366.02 21.4867 366.02 26.024C366.02 32.5294 364.216 40.0734 360.608 48.656C357 57.2387 352.107 65.7394 345.93 74.158C346.312 76.3994 346.941 78.012 347.816 78.996C348.69 79.9254 349.838 80.39 351.26 80.39C353.501 80.39 355.469 79.7614 357.164 78.504C358.858 77.192 361.018 74.978 363.642 71.862C364.298 71.0967 365.036 70.714 365.856 70.714ZM355.77 20.038C354.512 20.038 353.091 22.3067 351.506 26.844C349.92 31.3814 348.526 37.012 347.324 43.736C346.121 50.46 345.465 56.9107 345.356 63.088C349.237 56.692 352.326 50.296 354.622 43.9C356.918 37.4494 358.066 31.5727 358.066 26.27C358.066 22.1154 357.3 20.038 355.77 20.038Z" fill="white"/>
<path d="M375.382 89.41C372.157 89.41 369.396 88.6174 367.1 87.032C364.859 85.392 363.164 83.26 362.016 80.636C360.868 78.012 360.294 75.1967 360.294 72.1901C360.294 68.0354 361.059 64.3454 362.59 61.1201C364.175 57.8401 366.307 55.298 368.986 53.494C371.665 51.6354 374.671 50.7061 378.006 50.7061C381.231 50.7061 383.992 51.526 386.288 53.166C388.584 54.7514 390.306 56.856 391.454 59.48C392.602 62.104 393.176 64.9194 393.176 67.9261C393.176 72.0807 392.383 75.798 390.798 79.078C389.213 82.3034 387.053 84.8454 384.32 86.7041C381.641 88.5081 378.662 89.41 375.382 89.41ZM376.284 80.554C378.143 80.554 379.701 79.5427 380.958 77.5201C382.27 75.4974 382.926 72.5454 382.926 68.6641C382.926 65.6574 382.379 63.3887 381.286 61.858C380.193 60.3274 378.881 59.562 377.35 59.562C375.382 59.562 373.742 60.5734 372.43 62.5961C371.173 64.5641 370.544 67.516 370.544 71.452C370.544 74.568 371.091 76.864 372.184 78.34C373.277 79.816 374.644 80.554 376.284 80.554Z" fill="white"/>
<g clip-path="url(#clip0_202_7)">
<path d="M38.3625 100.462C34.7625 100.462 31.575 99.3937 28.8 97.2562C26.025 95.1187 24.075 92.3625 22.95 88.9875C21.75 90.9375 20.2875 92.4562 18.5625 93.5437C16.8375 94.6312 14.775 95.175 12.375 95.175C8.85 95.175 5.925 93.9375 3.6 91.4625C1.275 88.9875 0.112503 86.0625 0.112503 82.6875C0.112503 79.0125 1.25625 76.1062 3.54375 73.9687C5.83125 71.8312 8.7375 70.725 12.2625 70.65C10.9125 69.15 9.8625 67.4062 9.1125 65.4187C8.3625 63.4312 7.9875 61.425 7.9875 59.4C7.9875 56.55 8.71875 53.8875 10.1813 51.4125C11.6438 48.9375 13.725 46.95 16.425 45.45C16.8 46.425 17.2688 47.475 17.8313 48.6C18.3938 49.725 18.975 50.7 19.575 51.525C18.075 52.5 16.8938 53.7 16.0313 55.125C15.1688 56.55 14.7375 58.05 14.7375 59.625C14.7375 64.125 16.5563 66.9562 20.1938 68.1187C23.8313 69.2812 27.3375 70.2 30.7125 70.875L31.95 73.0125C31.05 75.6375 30.3188 77.7937 29.7563 79.4812C29.1938 81.1687 28.9125 82.725 28.9125 84.15C28.9125 86.7 29.8688 88.9312 31.7813 90.8437C33.6938 92.7562 35.925 93.7125 38.475 93.7125C41.55 93.7125 44.0813 92.4187 46.0688 89.8312C48.0563 87.2437 49.6688 84.1687 50.9063 80.6062C52.1438 77.0437 53.1 73.4437 53.775 69.8062C54.45 66.1687 55.0125 63.3375 55.4625 61.3125L61.9875 63.1125C61.3125 66.3375 60.525 70.0875 59.625 74.3625C58.725 78.6375 57.4313 82.7062 55.7438 86.5687C54.0563 90.4312 51.8438 93.7125 49.1063 96.4125C46.3688 99.1125 42.7875 100.462 38.3625 100.462V100.462ZM12.4875 88.425C14.0625 88.425 15.3938 87.8812 16.4813 86.7937C17.5688 85.7062 18.1125 84.375 18.1125 82.8C18.1125 81.225 17.5688 79.8937 16.4813 78.8062C15.3938 77.7187 14.0625 77.175 12.4875 77.175C10.9125 77.175 9.58125 77.7187 8.49375 78.8062C7.40625 79.8937 6.8625 81.225 6.8625 82.8C6.8625 84.375 7.40625 85.7062 8.49375 86.7937C9.58125 87.8812 10.9125 88.425 12.4875 88.425ZM46.2375 67.05C42.8625 64.05 39.7875 61.2562 37.0125 58.6687C34.2375 56.0812 31.8563 53.55 29.8688 51.075C27.8813 48.6 26.3438 46.1625 25.2563 43.7625C24.1688 41.3625 23.625 38.8125 23.625 36.1125C23.625 31.6125 25.2 27.7875 28.35 24.6375C31.5 21.4875 35.325 19.9125 39.825 19.9125C40.5 19.9125 41.1375 19.9312 41.7375 19.9687C42.3375 20.0062 42.9375 20.1 43.5375 20.25C42.8625 18.975 42.375 17.8875 42.075 16.9875C41.775 16.0875 41.625 15.1875 41.625 14.2875C41.625 10.8375 42.825 7.91248 45.225 5.51248C47.625 3.11248 50.55 1.91248 54 1.91248C57.45 1.91248 60.375 3.11248 62.775 5.51248C65.175 7.91248 66.375 10.8375 66.375 14.2875C66.375 15.1125 66.2438 15.9937 65.9813 16.9312C65.7188 17.8687 65.2125 18.975 64.4625 20.25C65.0625 20.1 65.6625 20.0062 66.2625 19.9687C66.8625 19.9312 67.5 19.9125 68.175 19.9125C72.45 19.9125 76.0688 21.2812 79.0313 24.0187C81.9938 26.7562 83.7 30.15 84.15 34.2C83.1 34.125 81.975 34.1062 80.775 34.1437C79.575 34.1812 78.45 34.275 77.4 34.425C77.025 32.175 76.0125 30.3187 74.3625 28.8562C72.7125 27.3937 70.65 26.6625 68.175 26.6625C65.4 26.6625 63.2063 27.4312 61.5938 28.9687C59.9813 30.5062 57.825 32.85 55.125 36H52.7625C49.9875 32.7 47.7938 30.3187 46.1813 28.8562C44.5688 27.3937 42.45 26.6625 39.825 26.6625C37.125 26.6625 34.875 27.5625 33.075 29.3625C31.275 31.1625 30.375 33.4125 30.375 36.1125C30.375 37.9125 30.8625 39.75 31.8375 41.625C32.8125 43.5 34.2 45.5062 36 47.6437C37.8 49.7812 39.975 52.0312 42.525 54.3937C45.075 56.7562 47.925 59.3625 51.075 62.2125L46.2375 67.05ZM54 19.9125C55.575 19.9125 56.9063 19.3687 57.9938 18.2812C59.0813 17.1937 59.625 15.8625 59.625 14.2875C59.625 12.7125 59.0813 11.3812 57.9938 10.2937C56.9063 9.20622 55.575 8.66247 54 8.66247C52.425 8.66247 51.0938 9.20622 50.0063 10.2937C48.9188 11.3812 48.375 12.7125 48.375 14.2875C48.375 15.8625 48.9188 17.1937 50.0063 18.2812C51.0938 19.3687 52.425 19.9125 54 19.9125ZM69.525 100.575C67.875 100.575 66.2438 100.312 64.6313 99.7875C63.0188 99.2625 61.4625 98.475 59.9625 97.425C60.5625 96.525 61.1625 95.5125 61.7625 94.3875C62.3625 93.2625 62.85 92.2125 63.225 91.2375C64.275 92.0625 65.3438 92.6812 66.4313 93.0937C67.5188 93.5062 68.625 93.7125 69.75 93.7125C72.375 93.7125 74.6063 92.7562 76.4438 90.8437C78.2813 88.9312 79.2 86.7 79.2 84.15C79.2 82.65 78.9 81.0562 78.3 79.3687C77.7 77.6812 76.9875 75.5625 76.1625 73.0125L77.4 70.875C80.85 70.275 84.375 69.3937 87.975 68.2312C91.575 67.0687 93.375 64.2375 93.375 59.7375C93.375 56.4375 92.175 53.9812 89.775 52.3687C87.375 50.7562 84.7125 49.95 81.7875 49.95C78.6375 49.95 74.9063 50.55 70.5938 51.75C66.2813 52.95 61.275 54.4875 55.575 56.3625L53.8875 49.8375C59.5875 47.9625 64.725 46.3875 69.3 45.1125C73.875 43.8375 78.0375 43.2 81.7875 43.2C86.5875 43.2 90.8438 44.6437 94.5563 47.5312C98.2688 50.4187 100.125 54.45 100.125 59.625C100.125 61.65 99.75 63.6375 99 65.5875C98.25 67.5375 97.2 69.2625 95.85 70.7625C99.3 70.8375 102.188 71.9625 104.513 74.1375C106.838 76.3125 108 79.2 108 82.8C108 86.175 106.838 89.1 104.513 91.575C102.188 94.05 99.2625 95.2875 95.7375 95.2875C93.4125 95.2875 91.35 94.7437 89.55 93.6562C87.75 92.5687 86.2875 91.05 85.1625 89.1C83.9625 92.475 81.975 95.2312 79.2 97.3687C76.425 99.5062 73.2 100.575 69.525 100.575V100.575ZM95.7375 88.5375C97.2375 88.5375 98.5313 87.9937 99.6188 86.9062C100.706 85.8187 101.25 84.4875 101.25 82.9125C101.25 81.4125 100.688 80.0812 99.5625 78.9187C98.4375 77.7562 97.125 77.175 95.625 77.175C94.125 77.175 92.8125 77.7375 91.6875 78.8625C90.5625 79.9875 90 81.3 90 82.8C90 84.3 90.5813 85.6312 91.7438 86.7937C92.9063 87.9562 94.2375 88.5375 95.7375 88.5375V88.5375Z" fill="white"/>
</g>
<defs>
<clipPath id="clip0_202_7">
<rect width="108" height="108" fill="white"/>
</clipPath>
</defs>
</svg>
