<svg width="214" height="214" viewBox="0 0 214 214" fill="none" xmlns="http://www.w3.org/2000/svg">
<g clip-path="url(#clip0_202_9)">
<path d="M76.1111 198.778C69 198.778 62.7037 196.667 57.2223 192.444C51.7408 188.222 47.8889 182.778 45.6667 176.111C43.2963 179.963 40.4074 182.963 37 185.111C33.5926 187.259 29.5185 188.333 24.7778 188.333C17.8148 188.333 12.0371 185.889 7.44446 181C2.85187 176.111 0.555573 170.333 0.555573 163.667C0.555573 156.407 2.81483 150.667 7.33335 146.445C11.8519 142.222 17.5926 140.037 24.5556 139.889C21.8889 136.926 19.8148 133.482 18.3334 129.556C16.8519 125.63 16.1111 121.667 16.1111 117.667C16.1111 112.037 17.5556 106.778 20.4445 101.889C23.3334 97.0001 27.4445 93.0742 32.7778 90.1112C33.5185 92.0371 34.4445 94.1112 35.5556 96.3334C36.6667 98.5556 37.8148 100.482 39 102.111C36.0371 104.037 33.7037 106.407 32 109.222C30.2963 112.037 29.4445 115 29.4445 118.111C29.4445 127 33.0371 132.593 40.2223 134.889C47.4074 137.185 54.3334 139 61 140.333L63.4445 144.556C61.6667 149.741 60.2223 154 59.1111 157.333C58 160.667 57.4445 163.741 57.4445 166.556C57.4445 171.593 59.3334 176 63.1111 179.778C66.8889 183.556 71.2963 185.445 76.3334 185.445C82.4074 185.445 87.4075 182.889 91.3334 177.778C95.2593 172.667 98.4445 166.593 100.889 159.556C103.333 152.519 105.222 145.407 106.556 138.222C107.889 131.037 109 125.445 109.889 121.445L122.778 125C121.444 131.37 119.889 138.778 118.111 147.222C116.333 155.667 113.778 163.704 110.444 171.333C107.111 178.963 102.741 185.444 97.3334 190.778C91.926 196.111 84.8519 198.778 76.1111 198.778ZM25 175C28.1111 175 30.7408 173.926 32.8889 171.778C35.0371 169.63 36.1111 167 36.1111 163.889C36.1111 160.778 35.0371 158.148 32.8889 156C30.7408 153.852 28.1111 152.778 25 152.778C21.8889 152.778 19.2593 153.852 17.1111 156C14.963 158.148 13.8889 160.778 13.8889 163.889C13.8889 167 14.963 169.63 17.1111 171.778C19.2593 173.926 21.8889 175 25 175ZM91.6667 132.778C85 126.852 78.926 121.333 73.4445 116.222C67.963 111.111 63.2593 106.111 59.3334 101.222C55.4074 96.3334 52.3704 91.5186 50.2223 86.7779C48.0741 82.0371 47 77.0001 47 71.6667C47 62.7779 50.1111 55.2223 56.3334 49.0001C62.5556 42.7779 70.1112 39.6668 79 39.6668C80.3334 39.6668 81.5926 39.7038 82.7778 39.7779C83.963 39.8519 85.1482 40.0371 86.3334 40.3334C85 37.8149 84.0371 35.6668 83.4445 33.889C82.8519 32.1112 82.5556 30.3334 82.5556 28.5556C82.5556 21.7408 84.926 15.9631 89.6667 11.2223C94.4075 6.48158 100.185 4.11121 107 4.11121C113.815 4.11121 119.593 6.48158 124.333 11.2223C129.074 15.9631 131.445 21.7408 131.445 28.5556C131.445 30.1853 131.185 31.926 130.667 33.7779C130.148 35.6297 129.148 37.8149 127.667 40.3334C128.852 40.0371 130.037 39.8519 131.222 39.7779C132.407 39.7038 133.667 39.6668 135 39.6668C143.445 39.6668 150.593 42.3705 156.445 47.7779C162.296 53.1853 165.667 59.889 166.556 67.889C164.482 67.7408 162.259 67.7038 159.889 67.7779C157.519 67.8519 155.296 68.0371 153.222 68.3334C152.482 63.889 150.482 60.2223 147.222 57.3334C143.963 54.4445 139.889 53.0001 135 53.0001C129.519 53.0001 125.185 54.5186 122 57.5556C118.815 60.5927 114.556 65.2223 109.222 71.4445H104.556C99.0741 64.926 94.7408 60.2223 91.5556 57.3334C88.3704 54.4445 84.1852 53.0001 79 53.0001C73.6667 53.0001 69.2223 54.7779 65.6667 58.3334C62.1111 61.889 60.3334 66.3334 60.3334 71.6667C60.3334 75.2223 61.2963 78.8519 63.2223 82.5556C65.1482 86.2593 67.8889 90.2223 71.4445 94.4445C75 98.6667 79.2963 103.111 84.3334 107.778C89.3704 112.445 95 117.593 101.222 123.222L91.6667 132.778ZM107 39.6668C110.111 39.6668 112.741 38.5927 114.889 36.4445C117.037 34.2964 118.111 31.6668 118.111 28.5556C118.111 25.4445 117.037 22.8149 114.889 20.6668C112.741 18.5186 110.111 17.4445 107 17.4445C103.889 17.4445 101.259 18.5186 99.1112 20.6668C96.963 22.8149 95.8889 25.4445 95.8889 28.5556C95.8889 31.6668 96.963 34.2964 99.1112 36.4445C101.259 38.5927 103.889 39.6668 107 39.6668ZM137.667 199C134.407 199 131.185 198.482 128 197.444C124.815 196.407 121.741 194.852 118.778 192.778C119.963 191 121.148 189 122.333 186.778C123.519 184.556 124.482 182.482 125.222 180.556C127.296 182.185 129.407 183.407 131.556 184.222C133.704 185.037 135.889 185.445 138.111 185.445C143.296 185.445 147.704 183.556 151.333 179.778C154.963 176 156.778 171.593 156.778 166.556C156.778 163.593 156.185 160.445 155 157.111C153.815 153.778 152.407 149.593 150.778 144.556L153.222 140.333C160.037 139.148 167 137.407 174.111 135.111C181.222 132.815 184.778 127.222 184.778 118.333C184.778 111.815 182.407 106.963 177.667 103.778C172.926 100.593 167.667 99.0001 161.889 99.0001C155.667 99.0001 148.296 100.185 139.778 102.556C131.259 104.926 121.37 107.963 110.111 111.667L106.778 98.7778C118.037 95.0741 128.185 91.963 137.222 89.4445C146.259 86.926 154.482 85.6667 161.889 85.6667C171.37 85.6667 179.778 88.5186 187.111 94.2223C194.445 99.926 198.111 107.889 198.111 118.111C198.111 122.111 197.37 126.037 195.889 129.889C194.407 133.741 192.333 137.148 189.667 140.111C196.482 140.259 202.185 142.482 206.778 146.778C211.37 151.074 213.667 156.778 213.667 163.889C213.667 170.556 211.37 176.333 206.778 181.222C202.185 186.111 196.407 188.556 189.445 188.556C184.852 188.556 180.778 187.482 177.222 185.333C173.667 183.185 170.778 180.185 168.556 176.333C166.185 183 162.259 188.445 156.778 192.667C151.296 196.889 144.926 199 137.667 199ZM189.445 175.222C192.407 175.222 194.963 174.148 197.111 172C199.259 169.852 200.333 167.222 200.333 164.111C200.333 161.148 199.222 158.519 197 156.222C194.778 153.926 192.185 152.778 189.222 152.778C186.259 152.778 183.667 153.889 181.445 156.111C179.222 158.333 178.111 160.926 178.111 163.889C178.111 166.852 179.259 169.482 181.556 171.778C183.852 174.074 186.482 175.222 189.445 175.222Z" fill="white"/>
</g>
<defs>
<clipPath id="clip0_202_9">
<rect width="213.333" height="213.333" fill="white" transform="translate(0.333344 0.333374)"/>
</clipPath>
</defs>
</svg>
